<svg width="180" height="180" viewBox="0 0 180 180" fill="none" xmlns="http://www.w3.org/2000/svg">
<g clip-path="url(#clip0)">
<path d="M159.375 180H20.6255C9.24774 180 0 170.752 0 159.375V35.6246C0 24.2469 9.24774 15.0005 20.6255 15.0005H159.375C170.752 15.0005 180 24.2469 180 35.6246V159.375C180 170.752 170.752 180 159.375 180V180ZM20.6255 26.2505C15.4578 26.2505 11.25 30.4569 11.25 35.6246V159.375C11.25 164.542 15.4578 168.75 20.6255 168.75H159.375C164.542 168.75 168.75 164.542 168.75 159.375V35.6246C168.75 30.4569 164.542 26.2505 159.375 26.2505H20.6255Z" fill="#7E70F4"/>
<path d="M174.375 71.2505H5.625C2.51999 71.2505 0 68.7305 0 65.6255C0 62.5205 2.51999 60.0005 5.625 60.0005H174.375C177.48 60.0005 180 62.5205 180 65.6255C180 68.7305 177.48 71.2505 174.375 71.2505Z" fill="#7E70F4"/>
<path d="M43.1255 45C40.0205 45 37.5005 42.48 37.5005 39.375V5.625C37.5005 2.51999 40.0205 0 43.1255 0C46.2305 0 48.7505 2.51999 48.7505 5.625V39.375C48.7505 42.48 46.2305 45 43.1255 45Z" fill="#7E70F4"/>
<path d="M136.875 45C133.77 45 131.25 42.48 131.25 39.375V5.625C131.25 2.51999 133.77 0 136.875 0C139.98 0 142.5 2.51999 142.5 5.625V39.375C142.5 42.48 139.98 45 136.875 45Z" fill="#7E70F4"/>
</g>
<defs>
<clipPath id="clip0">
<rect width="180" height="180" fill="white"/>
</clipPath>
</defs>
</svg>
